<svg width="61" height="18" viewBox="0 0 61 18" fill="none" xmlns="http://www.w3.org/2000/svg">
<path d="M4.33136 3.72501C4.33136 3.31079 4.65456 2.97501 5.05325 2.97501H13.355C13.7537 2.97501 14.0769 3.31079 14.0769 3.72501V4.85001C14.0769 5.26422 13.7537 5.60001 13.355 5.60001H5.05325C4.65456 5.60001 4.33136 5.26422 4.33136 4.85001V3.72501Z" fill="#FF4A00"/>
<path d="M5.05326 12.725C5.05326 12.3108 5.37646 11.975 5.77515 11.975H12.6331C13.0318 11.975 13.355 12.3108 13.355 12.725V13.85C13.355 14.2642 13.0318 14.6 12.6331 14.6H5.77515C5.37646 14.6 5.05326 14.2642 5.05326 13.85V12.725Z" fill="#FF4A00"/>
<path d="M1.08284 8.22501C1.08284 7.81079 1.40604 7.47501 1.80473 7.47501H10.1065C10.5052 7.47501 10.8284 7.81079 10.8284 8.22501V9.35001C10.8284 9.76422 10.5052 10.1 10.1065 10.1H1.80473C1.40604 10.1 1.08284 9.76422 1.08284 9.35001V8.22501Z" fill="#FF4A00"/>
<path d="M18.1446 17.175C18.1446 17.3959 18.3158 17.575 18.5271 17.575H20.7769C20.9882 17.575 21.1594 17.3959 21.1594 17.175V11.5049C21.1594 11.2839 21.3306 11.1049 21.5418 11.1049H26.2209C26.4321 11.1049 26.6033 10.9258 26.6033 10.7049V8.67272C26.6033 8.45181 26.4321 8.27272 26.2209 8.27272H21.5418C21.3306 8.27272 21.1594 8.09364 21.1594 7.87272V4.68932C21.1594 4.46841 21.3306 4.28932 21.5418 4.28932H28.3688C28.5801 4.28932 28.7513 4.11024 28.7513 3.88932V1.8572C28.7513 1.63628 28.5801 1.4572 28.3688 1.4572H18.5271C18.3158 1.4572 18.1446 1.63628 18.1446 1.8572V17.175Z" fill="#0049D7"/>
<path d="M40.3248 17.175C40.3248 17.3959 40.496 17.575 40.7072 17.575H42.8911C43.1023 17.575 43.2735 17.3959 43.2735 17.175V0.936179C43.2735 0.715265 43.1023 0.536179 42.8911 0.536179H40.7072C40.496 0.536179 40.3248 0.715265 40.3248 0.936179V17.175Z" fill="#0049D7"/>
<path d="M46.6022 4.10512C47.1744 4.10512 47.6145 3.94394 47.9446 3.59856C48.2747 3.2762 48.4287 2.8157 48.4287 2.21703C48.4287 1.6414 48.2747 1.20392 47.9446 0.858535C47.6145 0.536179 47.1744 0.375 46.6022 0.375C46.0081 0.375 45.546 0.536179 45.2379 0.858535C44.9298 1.20392 44.7758 1.6414 44.7758 2.21703C44.7758 2.8157 44.9298 3.2762 45.2379 3.59856C45.546 3.94394 46.0081 4.10512 46.6022 4.10512ZM45.1059 17.175C45.1059 17.3959 45.2771 17.575 45.4883 17.575H47.6722C47.8834 17.575 48.0546 17.3959 48.0546 17.175V6.00177C48.0546 5.78086 47.8834 5.60177 47.6722 5.60177H45.4883C45.2771 5.60177 45.1059 5.78086 45.1059 6.00177V17.175Z" fill="#0049D7"/>
<path d="M48.6283 17.3978C48.6283 17.4956 48.7042 17.575 48.7978 17.575H51.6262C51.7596 17.575 51.8835 17.5022 51.9529 17.383L54.2169 13.4927C54.2311 13.4683 54.2564 13.4534 54.2836 13.4534C54.311 13.4534 54.3364 13.4684 54.3505 13.493L56.5928 17.3816C56.662 17.5016 56.7863 17.575 56.9203 17.575H59.7475C59.8412 17.575 59.9171 17.4956 59.9171 17.3976C59.9171 17.3631 59.9075 17.3294 59.8894 17.3005L56.4223 11.7598C56.3395 11.6275 56.339 11.4568 56.4209 11.3239L59.78 5.87605C59.7977 5.84731 59.8071 5.81384 59.8071 5.77965C59.8071 5.68141 59.731 5.60177 59.637 5.60177H56.8549C56.7205 5.60177 56.596 5.67552 56.5269 5.79604L54.3504 9.59175C54.3363 9.61624 54.311 9.63122 54.2837 9.63122C54.2564 9.63122 54.2311 9.61624 54.2171 9.59175L52.0405 5.79604C51.9714 5.67552 51.8469 5.60177 51.7125 5.60177H48.9307C48.8366 5.60177 48.7603 5.68157 48.7603 5.78C48.7603 5.81398 48.7696 5.84725 48.7871 5.87589L52.126 11.347C52.207 11.4799 52.206 11.6501 52.1232 11.7819L48.6561 17.3004C48.638 17.3293 48.6283 17.3632 48.6283 17.3978Z" fill="#0049D7"/>
<path d="M32.6278 3.96152C32.6278 4.06626 32.709 4.15117 32.8091 4.15117H34.6241C34.7517 4.15117 34.8709 4.08458 34.9419 3.97365L36.7788 1.10312C36.7974 1.07405 36.8073 1.03986 36.8073 1.00489V1.00489C36.8073 0.907348 36.7317 0.828278 36.6385 0.828278H34.2025C34.0519 0.828278 33.9153 0.920755 33.8536 1.06449L32.6437 3.88387C32.6332 3.90829 32.6278 3.93475 32.6278 3.96152V3.96152Z" fill="#0049D7"/>
<path d="M31.7394 5.69027C32.7624 5.30341 33.7801 5.21868 34.7924 5.43609C35.8048 5.65349 36.6947 6.13015 37.4623 6.86605C38.2351 7.5903 38.8005 8.48979 39.1584 9.56452C39.276 9.92664 39.2603 10.2521 39.1112 10.5408C38.9591 10.821 38.7316 11.0183 38.4288 11.1328L31.4555 13.7697C31.9041 14.3358 32.4596 14.7308 33.1219 14.9547C33.7895 15.1669 34.4507 15.1492 35.1054 14.9017C35.8093 14.6355 36.4605 14.0601 37.0589 13.1755C37.131 13.0902 37.1997 13.0351 37.2652 13.0104C37.3552 12.9763 37.4551 12.9967 37.5646 13.0714L38.2144 13.5372C38.5067 13.7365 38.7472 13.9069 38.9358 14.0486C39.0149 14.1155 39.0694 14.1917 39.0993 14.2772C39.1353 14.3798 39.1258 14.485 39.0709 14.5929C38.3186 15.9907 37.2794 16.9402 35.9535 17.4416C34.9141 17.8347 33.8637 17.9318 32.8022 17.7329C31.749 17.531 30.8073 17.0787 29.9773 16.3761C29.1524 15.6619 28.5528 14.7705 28.1784 13.702C27.8011 12.6249 27.7007 11.5447 27.8774 10.4615C28.0622 9.3751 28.4929 8.40871 29.1696 7.5623C29.8433 6.70733 30.6999 6.08333 31.7394 5.69027ZM32.6671 8.41792C31.9714 8.68098 31.4377 9.11517 31.0658 9.72046C30.6909 10.3172 30.5425 10.9784 30.6206 11.7039L36.0592 9.64737C35.6783 9.03631 35.1883 8.61656 34.5892 8.3881C33.9872 8.1511 33.3465 8.16104 32.6671 8.41792Z" fill="#0049D7"/>
</svg>
